<?xml version="1.0" encoding="UTF-8" standalone="no"?>
<svg
   xmlns:dc="http://purl.org/dc/elements/1.1/"
   xmlns:cc="http://creativecommons.org/ns#"
   xmlns:rdf="http://www.w3.org/1999/02/22-rdf-syntax-ns#"
   xmlns:svg="http://www.w3.org/2000/svg"
   xmlns="http://www.w3.org/2000/svg"
   xmlns:sodipodi="http://sodipodi.sourceforge.net/DTD/sodipodi-0.dtd"
   xmlns:inkscape="http://www.inkscape.org/namespaces/inkscape"
   version="1.1"
   x="0px"
   y="0px"
   viewBox="0 0 40.000002 40"
   enable-background="new 0 0 144.083 144"
   xml:space="preserve"
   id="svg38"
   sodipodi:docname="noun_Place POI_686080.svg"
   width="40"
   height="40"
   inkscape:version="0.92.5 (2060ec1f9f, 2020-04-08)"><metadata
     id="metadata44"><rdf:RDF><cc:Work
         rdf:about=""><dc:format>image/svg+xml</dc:format><dc:type
           rdf:resource="http://purl.org/dc/dcmitype/StillImage" /><dc:title></dc:title></cc:Work></rdf:RDF></metadata><defs
     id="defs42" /><sodipodi:namedview
     pagecolor="#ffffff"
     bordercolor="#666666"
     borderopacity="1"
     objecttolerance="10"
     gridtolerance="10"
     guidetolerance="10"
     inkscape:pageopacity="0"
     inkscape:pageshadow="2"
     inkscape:window-width="640"
     inkscape:window-height="480"
     id="namedview40"
     showgrid="false"
     inkscape:zoom="5.2444444"
     inkscape:cx="33.705126"
     inkscape:cy="22.948388"
     inkscape:window-x="72"
     inkscape:window-y="27"
     inkscape:window-maximized="0"
     inkscape:current-layer="svg38" /><path
     d="m 25.856279,2.7760354 h -11.55029 c -4.15057,0 -7.526972,3.3764033 -7.526972,7.5266166 v 11.549579 c 0,4.150213 3.376402,7.526617 7.526972,7.526617 h 1.341461 l 4.433862,8.178508 4.43315,-8.178508 h 1.341462 c 4.150569,0 7.526971,-3.376404 7.526971,-7.526617 V 10.302652 c 0,-4.1502133 -3.376402,-7.5266166 -7.526616,-7.5266166 z m 5.393927,19.0761956 c 0,2.974035 -2.419892,5.393926 -5.394282,5.393926 h -2.611479 l -3.163133,5.836105 -3.163845,-5.836105 h -2.611478 c -2.974391,0 -5.3942829,-2.419891 -5.3942829,-5.393926 V 10.302652 c 0,-2.974035 2.4198919,-5.3939266 5.3942829,-5.3939266 h 11.549935 c 2.97439,0 5.394282,2.4198916 5.394282,5.3939266 z"
     id="path28"
     inkscape:connector-curvature="0"
     style="stroke-width:0.35544822" /><path
     d="m 20.081312,13.697537 c -1.694777,0 -3.073206,1.378784 -3.073206,3.073206 0,1.694421 1.378784,3.073205 3.073206,3.073205 1.694421,0 3.073205,-1.378784 3.073205,-3.073205 0,-1.694422 -1.378429,-3.073206 -3.073205,-3.073206 z m 0,4.014077 c -0.518599,0 -0.940516,-0.422272 -0.940516,-0.940515 0,-0.518244 0.422272,-0.940517 0.940516,-0.940517 0.518243,0 0.940515,0.422273 0.940515,0.940517 0,0.518243 -0.421916,0.940515 -0.940515,0.940515 z"
     id="path30"
     inkscape:connector-curvature="0"
     style="stroke-width:0.35544822" /><path
     d="m 25.550594,11.132623 h -4.937177 v -0.671086 c 0,-0.9693071 -0.788384,-1.7573357 -1.75698,-1.7573357 h -2.74726 c -0.968951,0 -1.75698,0.7883835 -1.75698,1.7573357 v 0.68637 c -1.100823,0.129028 -1.957808,1.067767 -1.957808,2.202713 v 6.938705 c 0,1.222386 0.995254,2.217286 2.217996,2.217286 h 10.938209 c 1.222386,0 2.217286,-0.9949 2.217286,-2.217286 V 13.35062 c 0,-1.222742 -0.994545,-2.217997 -2.217286,-2.217997 z m 0.0846,9.157057 c 0,0.04692 -0.03768,0.0846 -0.0846,0.0846 H 14.612385 c -0.04727,0 -0.08531,-0.03768 -0.08531,-0.0846 v -6.93906 c 0,-0.04727 0.03804,-0.08531 0.08531,-0.08531 h 1.872501 v -2.428423 h 1.995842 v 2.428423 h 7.070221 c 0.04692,0 0.0846,0.03803 0.0846,0.08531 v 6.93906 z"
     id="path32"
     inkscape:connector-curvature="0"
     style="stroke-width:0.35544822" /></svg>