<?xml version="1.0" encoding="UTF-8" standalone="no"?>
<svg
   xmlns:dc="http://purl.org/dc/elements/1.1/"
   xmlns:cc="http://creativecommons.org/ns#"
   xmlns:rdf="http://www.w3.org/1999/02/22-rdf-syntax-ns#"
   xmlns:svg="http://www.w3.org/2000/svg"
   xmlns="http://www.w3.org/2000/svg"
   xmlns:sodipodi="http://sodipodi.sourceforge.net/DTD/sodipodi-0.dtd"
   xmlns:inkscape="http://www.inkscape.org/namespaces/inkscape"
   data-name="Layer 1"
   viewBox="0 0 40 40"
   x="0px"
   y="0px"
   version="1.1"
   id="svg54"
   sodipodi:docname="noun_Bus_3344168.svg"
   width="40"
   height="40"
   inkscape:version="0.92.5 (2060ec1f9f, 2020-04-08)">
  <metadata
     id="metadata60">
    <rdf:RDF>
      <cc:Work
         rdf:about="">
        <dc:format>image/svg+xml</dc:format>
        <dc:type
           rdf:resource="http://purl.org/dc/dcmitype/StillImage" />
        <dc:title>Vehicles</dc:title>
      </cc:Work>
    </rdf:RDF>
  </metadata>
  <defs
     id="defs58" />
  <sodipodi:namedview
     pagecolor="#ffffff"
     bordercolor="#666666"
     borderopacity="1"
     objecttolerance="10"
     gridtolerance="10"
     guidetolerance="10"
     inkscape:pageopacity="0"
     inkscape:pageshadow="2"
     inkscape:window-width="640"
     inkscape:window-height="480"
     id="namedview56"
     showgrid="false"
     inkscape:zoom="1.888"
     inkscape:cx="50"
     inkscape:cy="62.5"
     inkscape:window-x="72"
     inkscape:window-y="27"
     inkscape:window-maximized="0"
     inkscape:current-layer="svg54" />
  <title
     id="title46">Vehicles</title>
  <path
     d="m 33.774922,11.607144 a 0.96939651,0.96939651 0 0 0 -0.896609,0.602151 C 32.583855,10.091842 32.305939,8.1629747 32.253003,7.6898557 32.064417,6.1183087 31.121489,5.1654547 29.75507,4.5302187 27.621074,3.5409707 25.334886,3.1373317 23.028847,2.8461817 22.013132,2.7171497 21.004033,2.6609047 19.965157,2.5715747 h -0.145574 c -1.889166,0.287841 -3.778331,0.506203 -5.660879,0.8933 A 19.808112,19.808112 0 0 0 10.76747,4.5963887 C 9.2951788,5.2183907 8.520985,6.3796817 8.3224738,7.9611547 8.1934415,8.9867957 8.0081643,10.52195 7.8195787,12.106731 A 0.96939651,0.96939651 0 0 0 5.940339,12.437583 v 3.278743 a 0.96939651,0.96939651 0 0 0 0.9693965,0.969397 0.93961983,0.93961983 0 0 0 0.3970225,-0.08602 c -0.1091812,1.009099 -0.1819687,1.733665 -0.1819687,1.909016 0,2.587263 0,7.199341 0,10.001658 a 0.85690681,0.85690681 0 0 0 -0.1555004,0.496278 v 1.508686 a 0.88337498,0.88337498 0 0 0 0.8800664,0.880067 h 1.5748558 v 2.534326 a 1.7303562,1.7303562 0 0 0 1.7270479,1.727048 h 2.746072 a 1.7303562,1.7303562 0 0 0 1.723739,-1.727048 v -2.534326 h 9.442518 v 2.534326 a 1.7303562,1.7303562 0 0 0 1.723739,1.727048 h 2.746072 a 1.7303562,1.7303562 0 0 0 1.727048,-1.727048 v -2.534326 h 1.578164 a 0.88337498,0.88337498 0 0 0 0.880066,-0.880067 v -1.508686 a 0.8866835,0.8866835 0 0 0 -0.168734,-0.519437 c 0.01985,-2.928041 0.03639,-7.851119 -0.05955,-10.62366 0,-0.307692 -0.03639,-0.684863 -0.07279,-1.108354 a 1.0124073,1.0124073 0 0 0 0.360629,0.06948 0.96939651,0.96939651 0 0 0 0.969396,-0.969397 V 12.576541 A 0.96939651,0.96939651 0 0 0 33.774922,11.607144 Z M 15.7104,6.1017657 h 9.263858 a 1.181142,1.181142 0 1 1 0,2.362284 H 15.7104 a 1.181142,1.181142 0 0 1 0,-2.362284 z M 11.200887,26.571582 a 1.7866011,1.7866011 0 0 1 -1.7468992,-1.875931 1.8229948,1.8229948 0 0 1 1.7932182,-1.763441 1.8626971,1.8626971 0 0 1 1.816378,1.846154 1.8395374,1.8395374 0 0 1 -1.862697,1.793218 z m 0.817204,-5.803145 a 1.8858567,1.8858567 0 0 1 -1.889165,-1.889165 v -6.626966 a 1.8891652,1.8891652 0 0 1 1.889165,-1.889165 h 16.648475 a 1.8891652,1.8891652 0 0 1 1.889166,1.889165 v 6.6402 a 1.8858567,1.8858567 0 0 1 -1.889166,1.875931 z m 17.303562,5.789911 a 1.779984,1.779984 0 0 1 -1.700579,-1.839537 1.7965266,1.7965266 0 1 1 3.589745,0.102564 1.76675,1.76675 0 0 1 -1.889166,1.736973 z"
     id="path48"
     inkscape:connector-curvature="0"
     style="stroke-width:0.33085206" />
</svg>
