<?xml version="1.0" encoding="UTF-8" standalone="no"?>
<svg
   xmlns:dc="http://purl.org/dc/elements/1.1/"
   xmlns:cc="http://creativecommons.org/ns#"
   xmlns:rdf="http://www.w3.org/1999/02/22-rdf-syntax-ns#"
   xmlns:svg="http://www.w3.org/2000/svg"
   xmlns="http://www.w3.org/2000/svg"
   xmlns:sodipodi="http://sodipodi.sourceforge.net/DTD/sodipodi-0.dtd"
   xmlns:inkscape="http://www.inkscape.org/namespaces/inkscape"
   viewBox="0 0 40 40"
   x="0px"
   y="0px"
   version="1.1"
   id="svg20"
   sodipodi:docname="noun_Calendar_4340940.svg"
   width="40"
   height="40"
   style="fill:none"
   inkscape:version="0.92.5 (2060ec1f9f, 2020-04-08)">
  <metadata
     id="metadata26">
    <rdf:RDF>
      <cc:Work
         rdf:about="">
        <dc:format>image/svg+xml</dc:format>
        <dc:type
           rdf:resource="http://purl.org/dc/dcmitype/StillImage" />
        <dc:title></dc:title>
      </cc:Work>
    </rdf:RDF>
  </metadata>
  <defs
     id="defs24" />
  <sodipodi:namedview
     pagecolor="#ffffff"
     bordercolor="#666666"
     borderopacity="1"
     objecttolerance="10"
     gridtolerance="10"
     guidetolerance="10"
     inkscape:pageopacity="0"
     inkscape:pageshadow="2"
     inkscape:window-width="640"
     inkscape:window-height="480"
     id="namedview22"
     showgrid="false"
     inkscape:zoom="5.5625733"
     inkscape:cx="3.2644216"
     inkscape:cy="21.110247"
     inkscape:window-x="72"
     inkscape:window-y="27"
     inkscape:window-maximized="0"
     inkscape:current-layer="svg20" />
  <path
     d="m 13.691082,21.836257 c 0.888912,0 1.609531,-0.720586 1.609531,-1.60953 0,-0.888943 -0.720619,-1.609531 -1.609531,-1.609531 -0.888912,0 -1.60953,0.720588 -1.60953,1.609531 0,0.888944 0.720618,1.60953 1.60953,1.60953 z"
     id="path2"
     inkscape:connector-curvature="0"
     style="fill:#000000;stroke-width:1.60953069" />
  <path
     d="m 15.300613,26.66485 c 0,0.888944 -0.720619,1.60953 -1.609531,1.60953 -0.888912,0 -1.60953,-0.720586 -1.60953,-1.60953 0,-0.888944 0.720618,-1.609531 1.60953,-1.609531 0.888912,0 1.609531,0.720587 1.609531,1.609531 z"
     id="path4"
     inkscape:connector-curvature="0"
     style="fill:#000000;stroke-width:1.60953069" />
  <path
     d="m 26.567327,21.836257 c 0.888944,0 1.609532,-0.720586 1.609532,-1.60953 0,-0.888943 -0.720588,-1.609531 -1.609532,-1.609531 -0.888943,0 -1.60953,0.720588 -1.60953,1.609531 0,0.888944 0.720587,1.60953 1.60953,1.60953 z"
     id="path6"
     inkscape:connector-curvature="0"
     style="fill:#000000;stroke-width:1.60953069" />
  <path
     d="m 21.738736,20.226727 c 0,0.888944 -0.720588,1.60953 -1.609531,1.60953 -0.888944,0 -1.60953,-0.720586 -1.60953,-1.60953 0,-0.888943 0.720586,-1.609531 1.60953,-1.609531 0.888943,0 1.609531,0.720588 1.609531,1.609531 z"
     id="path8"
     inkscape:connector-curvature="0"
     style="fill:#000000;stroke-width:1.60953069" />
  <path
     d="m 20.129205,28.27438 c 0.888943,0 1.609531,-0.720586 1.609531,-1.60953 0,-0.888944 -0.720588,-1.609531 -1.609531,-1.609531 -0.888944,0 -1.60953,0.720587 -1.60953,1.609531 0,0.888944 0.720586,1.60953 1.60953,1.60953 z"
     id="path10"
     inkscape:connector-curvature="0"
     style="fill:#000000;stroke-width:1.60953069" />
  <path
     d="m 28.176859,26.66485 c 0,0.888944 -0.720588,1.60953 -1.609532,1.60953 -0.888943,0 -1.60953,-0.720586 -1.60953,-1.60953 0,-0.888944 0.720587,-1.609531 1.60953,-1.609531 0.888944,0 1.609532,0.720587 1.609532,1.609531 z"
     id="path12"
     inkscape:connector-curvature="0"
     style="fill:#000000;stroke-width:1.60953069" />
  <path
     d="m 20.129205,4.1314201 c 0.888943,0 1.609531,0.7206191 1.609531,1.6095307 h 4.828591 c 0,-0.8889116 0.720588,-1.6095307 1.609532,-1.6095307 0.888943,0 1.60953,0.7206191 1.60953,1.6095307 3.555614,0 6.438122,2.8824442 6.438122,6.4381222 v 17.704838 c 0,3.555615 -2.882508,6.438123 -6.438122,6.438123 H 10.472021 c -3.5556786,0 -6.4381227,-2.882508 -6.4381227,-6.438123 V 12.179073 c 0,-3.555678 2.8824441,-6.4381222 6.4381227,-6.4381222 0,-0.8889116 0.720619,-1.6095307 1.609531,-1.6095307 0.888911,0 1.60953,0.7206191 1.60953,1.6095307 h 4.828593 c 0,-0.8889116 0.720586,-1.6095307 1.60953,-1.6095307 z M 7.2529596,15.398135 v 14.485776 c 0,1.777888 1.4412222,3.219062 3.2190614,3.219062 h 19.314368 c 1.777887,0 3.219061,-1.441174 3.219061,-3.219062 V 15.398135 Z M 33.00545,12.179073 c 0,-1.777839 -1.441174,-3.2190608 -3.219061,-3.2190608 0,0.8889117 -0.720587,1.6095308 -1.60953,1.6095308 -0.888944,0 -1.609532,-0.7206191 -1.609532,-1.6095308 h -4.828591 c 0,0.8889117 -0.720588,1.6095308 -1.609531,1.6095308 -0.888944,0 -1.60953,-0.7206191 -1.60953,-1.6095308 h -4.828593 c 0,0.8889117 -0.720619,1.6095308 -1.60953,1.6095308 -0.888912,0 -1.609531,-0.7206191 -1.609531,-1.6095308 -1.7778392,0 -3.2190614,1.4412218 -3.2190614,3.2190608 z"
     id="path14"
     inkscape:connector-curvature="0"
     style="clip-rule:evenodd;fill:#000000;fill-rule:evenodd;stroke-width:1.60953069" />
</svg>
