<?xml version="1.0" encoding="UTF-8" standalone="no"?>
<svg
   xmlns:dc="http://purl.org/dc/elements/1.1/"
   xmlns:cc="http://creativecommons.org/ns#"
   xmlns:rdf="http://www.w3.org/1999/02/22-rdf-syntax-ns#"
   xmlns:svg="http://www.w3.org/2000/svg"
   xmlns="http://www.w3.org/2000/svg"
   xmlns:sodipodi="http://sodipodi.sourceforge.net/DTD/sodipodi-0.dtd"
   xmlns:inkscape="http://www.inkscape.org/namespaces/inkscape"
   viewBox="0 0 40 40"
   x="0px"
   y="0px"
   version="1.1"
   id="svg82"
   sodipodi:docname="noun_Road_4343426.svg"
   width="40"
   height="40"
   inkscape:version="0.92.5 (2060ec1f9f, 2020-04-08)">
  <metadata
     id="metadata88">
    <rdf:RDF>
      <cc:Work
         rdf:about="">
        <dc:format>image/svg+xml</dc:format>
        <dc:type
           rdf:resource="http://purl.org/dc/dcmitype/StillImage" />
        <dc:title>Artboard 36</dc:title>
      </cc:Work>
    </rdf:RDF>
  </metadata>
  <defs
     id="defs86" />
  <sodipodi:namedview
     pagecolor="#ffffff"
     bordercolor="#666666"
     borderopacity="1"
     objecttolerance="10"
     gridtolerance="10"
     guidetolerance="10"
     inkscape:pageopacity="0"
     inkscape:pageshadow="2"
     inkscape:window-width="640"
     inkscape:window-height="480"
     id="namedview84"
     showgrid="false"
     inkscape:zoom="5.9"
     inkscape:cx="16"
     inkscape:cy="13.220339"
     inkscape:window-x="72"
     inkscape:window-y="27"
     inkscape:window-maximized="0"
     inkscape:current-layer="svg82" />
  <title
     id="title62">Artboard 36</title>
  <g
     data-name="01"
     id="g76"
     transform="translate(4.9152542,2.5423729)">
    <path
       d="M 18.9375,30 H 3 A 1,1 0 0 1 2.0117,28.8477 l 4,-26 A 1,1 0 0 1 7,2 h 14 a 1.0006,1.0006 0 0 1 0.9883,0.8477 l 1.6269,10.5761 a 1,1 0 1 1 -1.9765,0.3047 L 20.1416,4 H 7.8579 L 4.1655,28 h 14.772 a 1,1 0 0 1 0,2 z"
       id="path64"
       inkscape:connector-curvature="0" />
    <path
       d="m 14,27 a 1,1 0 0 1 -1,-1 v -2 a 1,1 0 0 1 2,0 v 2 a 1,1 0 0 1 -1,1 z"
       id="path66"
       inkscape:connector-curvature="0" />
    <path
       d="m 14,21 a 1,1 0 0 1 -1,-1 v -2 a 1,1 0 0 1 2,0 v 2 a 1,1 0 0 1 -1,1 z"
       id="path68"
       inkscape:connector-curvature="0" />
    <path
       d="m 14,15 a 1,1 0 0 1 -1,-1 v -2 a 1,1 0 0 1 2,0 v 2 a 1,1 0 0 1 -1,1 z"
       id="path70"
       inkscape:connector-curvature="0" />
    <path
       d="M 14,9 A 1,1 0 0 1 13,8 V 6 a 1,1 0 0 1 2,0 v 2 a 1,1 0 0 1 -1,1 z"
       id="path72"
       inkscape:connector-curvature="0" />
    <path
       d="m 29.2178,18.8916 a 5.6073,5.6073 0 0 0 -4.57,-2.8926 7.4024,7.4024 0 0 0 -0.8838,0 5.6063,5.6063 0 0 0 -4.5655,2.8926 5.95,5.95 0 0 0 -0.1318,5.6631 5.8772,5.8772 0 0 0 0.9072,1.2656 l 3.4932,3.8516 a 1.0013,1.0013 0 0 0 1.4824,0 l 3.4922,-3.8506 a 5.7913,5.7913 0 0 0 0.7764,-6.93 z m -5.01,4.5547 A 1.7056,1.7056 0 1 1 25.9141,21.74 1.7076,1.7076 0 0 1 24.208,23.4463 Z"
       id="path74"
       inkscape:connector-curvature="0" />
  </g>
</svg>
